<mxfile host="app.diagrams.net" modified="2022-02-18T07:48:47.115Z" agent="5.0 (Macintosh; Intel Mac OS X 10_15_7) AppleWebKit/537.36 (KHTML, like Gecko) Chrome/98.0.4758.80 Safari/537.36" etag="O3pS54d31ZXRJYAikZyY" version="14.8.2" type="github">
  <diagram id="kO47HjCVSKzxQzMlH1wq" name="Page-1">
    <mxGraphModel dx="1298" dy="756" grid="1" gridSize="10" guides="1" tooltips="1" connect="1" arrows="1" fold="1" page="1" pageScale="1" pageWidth="827" pageHeight="1169" math="0" shadow="0">
      <root>
        <mxCell id="0" />
        <mxCell id="1" parent="0" />
        <mxCell id="Cb7k-1XzN7EP1WFbkGiM-3" value="磁盘" style="outlineConnect=0;fontColor=#232F3E;gradientColor=none;fillColor=#232F3E;strokeColor=none;dashed=0;verticalLabelPosition=bottom;verticalAlign=top;align=center;html=1;fontSize=12;fontStyle=0;aspect=fixed;pointerEvents=1;shape=mxgraph.aws4.disk;" vertex="1" parent="1">
          <mxGeometry x="620" y="270" width="78" height="78" as="geometry" />
        </mxCell>
        <mxCell id="Cb7k-1XzN7EP1WFbkGiM-8" style="edgeStyle=orthogonalEdgeStyle;rounded=0;orthogonalLoop=1;jettySize=auto;html=1;strokeWidth=2;" edge="1" parent="1" source="Cb7k-1XzN7EP1WFbkGiM-5" target="Cb7k-1XzN7EP1WFbkGiM-3">
          <mxGeometry relative="1" as="geometry" />
        </mxCell>
        <mxCell id="Cb7k-1XzN7EP1WFbkGiM-5" value="数据库" style="outlineConnect=0;fontColor=#232F3E;gradientColor=none;fillColor=#3334B9;strokeColor=none;dashed=0;verticalLabelPosition=bottom;verticalAlign=top;align=center;html=1;fontSize=12;fontStyle=0;aspect=fixed;pointerEvents=1;shape=mxgraph.aws4.rds_mysql_instance;" vertex="1" parent="1">
          <mxGeometry x="390" y="270" width="78" height="78" as="geometry" />
        </mxCell>
        <mxCell id="Cb7k-1XzN7EP1WFbkGiM-7" style="edgeStyle=orthogonalEdgeStyle;rounded=0;orthogonalLoop=1;jettySize=auto;html=1;strokeWidth=2;" edge="1" parent="1" source="Cb7k-1XzN7EP1WFbkGiM-6" target="Cb7k-1XzN7EP1WFbkGiM-5">
          <mxGeometry relative="1" as="geometry" />
        </mxCell>
        <mxCell id="Cb7k-1XzN7EP1WFbkGiM-9" value="读写" style="edgeLabel;html=1;align=center;verticalAlign=middle;resizable=0;points=[];" vertex="1" connectable="0" parent="Cb7k-1XzN7EP1WFbkGiM-7">
          <mxGeometry x="0.0286" y="1" relative="1" as="geometry">
            <mxPoint as="offset" />
          </mxGeometry>
        </mxCell>
        <mxCell id="Cb7k-1XzN7EP1WFbkGiM-6" value="应用程序" style="pointerEvents=1;shadow=0;dashed=0;html=1;strokeColor=none;fillColor=#505050;labelPosition=center;verticalLabelPosition=bottom;verticalAlign=top;outlineConnect=0;align=center;shape=mxgraph.office.concepts.application_generic;" vertex="1" parent="1">
          <mxGeometry x="160" y="274" width="90" height="70" as="geometry" />
        </mxCell>
        <mxCell id="Cb7k-1XzN7EP1WFbkGiM-10" value="磁盘" style="outlineConnect=0;fontColor=#232F3E;gradientColor=none;fillColor=#232F3E;strokeColor=none;dashed=0;verticalLabelPosition=bottom;verticalAlign=top;align=center;html=1;fontSize=12;fontStyle=0;aspect=fixed;pointerEvents=1;shape=mxgraph.aws4.disk;" vertex="1" parent="1">
          <mxGeometry x="620" y="423" width="78" height="78" as="geometry" />
        </mxCell>
        <mxCell id="Cb7k-1XzN7EP1WFbkGiM-11" style="edgeStyle=orthogonalEdgeStyle;rounded=0;orthogonalLoop=1;jettySize=auto;html=1;strokeWidth=2;" edge="1" parent="1" source="Cb7k-1XzN7EP1WFbkGiM-12" target="Cb7k-1XzN7EP1WFbkGiM-10">
          <mxGeometry relative="1" as="geometry" />
        </mxCell>
        <mxCell id="Cb7k-1XzN7EP1WFbkGiM-17" style="edgeStyle=orthogonalEdgeStyle;rounded=0;orthogonalLoop=1;jettySize=auto;html=1;strokeWidth=2;" edge="1" parent="1" source="Cb7k-1XzN7EP1WFbkGiM-12" target="Cb7k-1XzN7EP1WFbkGiM-16">
          <mxGeometry relative="1" as="geometry" />
        </mxCell>
        <mxCell id="Cb7k-1XzN7EP1WFbkGiM-22" value="同步" style="edgeLabel;html=1;align=center;verticalAlign=middle;resizable=0;points=[];" vertex="1" connectable="0" parent="Cb7k-1XzN7EP1WFbkGiM-17">
          <mxGeometry x="-0.0976" relative="1" as="geometry">
            <mxPoint as="offset" />
          </mxGeometry>
        </mxCell>
        <mxCell id="Cb7k-1XzN7EP1WFbkGiM-12" value="数据库" style="outlineConnect=0;fontColor=#232F3E;gradientColor=none;fillColor=#3334B9;strokeColor=none;dashed=0;verticalLabelPosition=bottom;verticalAlign=top;align=center;html=1;fontSize=12;fontStyle=0;aspect=fixed;pointerEvents=1;shape=mxgraph.aws4.rds_mysql_instance;" vertex="1" parent="1">
          <mxGeometry x="390" y="423" width="78" height="78" as="geometry" />
        </mxCell>
        <mxCell id="Cb7k-1XzN7EP1WFbkGiM-13" style="edgeStyle=orthogonalEdgeStyle;rounded=0;orthogonalLoop=1;jettySize=auto;html=1;strokeWidth=2;" edge="1" parent="1" source="Cb7k-1XzN7EP1WFbkGiM-15" target="Cb7k-1XzN7EP1WFbkGiM-12">
          <mxGeometry relative="1" as="geometry" />
        </mxCell>
        <mxCell id="Cb7k-1XzN7EP1WFbkGiM-14" value="写" style="edgeLabel;html=1;align=center;verticalAlign=middle;resizable=0;points=[];" vertex="1" connectable="0" parent="Cb7k-1XzN7EP1WFbkGiM-13">
          <mxGeometry x="0.0286" y="1" relative="1" as="geometry">
            <mxPoint as="offset" />
          </mxGeometry>
        </mxCell>
        <mxCell id="Cb7k-1XzN7EP1WFbkGiM-20" style="edgeStyle=orthogonalEdgeStyle;rounded=0;orthogonalLoop=1;jettySize=auto;html=1;strokeWidth=2;" edge="1" parent="1" source="Cb7k-1XzN7EP1WFbkGiM-15" target="Cb7k-1XzN7EP1WFbkGiM-16">
          <mxGeometry relative="1" as="geometry">
            <mxPoint x="250" y="693" as="targetPoint" />
            <Array as="points">
              <mxPoint x="210" y="622" />
            </Array>
          </mxGeometry>
        </mxCell>
        <mxCell id="Cb7k-1XzN7EP1WFbkGiM-21" value="读" style="edgeLabel;html=1;align=center;verticalAlign=middle;resizable=0;points=[];" vertex="1" connectable="0" parent="Cb7k-1XzN7EP1WFbkGiM-20">
          <mxGeometry x="-0.1937" relative="1" as="geometry">
            <mxPoint as="offset" />
          </mxGeometry>
        </mxCell>
        <mxCell id="Cb7k-1XzN7EP1WFbkGiM-15" value="应用程序" style="pointerEvents=1;shadow=0;dashed=0;html=1;strokeColor=none;fillColor=#505050;labelPosition=center;verticalLabelPosition=bottom;verticalAlign=top;outlineConnect=0;align=center;shape=mxgraph.office.concepts.application_generic;" vertex="1" parent="1">
          <mxGeometry x="160" y="427" width="90" height="70" as="geometry" />
        </mxCell>
        <mxCell id="Cb7k-1XzN7EP1WFbkGiM-19" style="edgeStyle=orthogonalEdgeStyle;rounded=0;orthogonalLoop=1;jettySize=auto;html=1;strokeWidth=2;" edge="1" parent="1" source="Cb7k-1XzN7EP1WFbkGiM-16" target="Cb7k-1XzN7EP1WFbkGiM-18">
          <mxGeometry relative="1" as="geometry" />
        </mxCell>
        <mxCell id="Cb7k-1XzN7EP1WFbkGiM-16" value="Redis" style="outlineConnect=0;fontColor=#232F3E;gradientColor=none;fillColor=#3334B9;strokeColor=none;dashed=0;verticalLabelPosition=bottom;verticalAlign=top;align=center;html=1;fontSize=12;fontStyle=0;aspect=fixed;pointerEvents=1;shape=mxgraph.aws4.table;" vertex="1" parent="1">
          <mxGeometry x="390" y="583" width="78" height="78" as="geometry" />
        </mxCell>
        <mxCell id="Cb7k-1XzN7EP1WFbkGiM-18" value="磁盘" style="outlineConnect=0;fontColor=#232F3E;gradientColor=none;fillColor=#232F3E;strokeColor=none;dashed=0;verticalLabelPosition=bottom;verticalAlign=top;align=center;html=1;fontSize=12;fontStyle=0;aspect=fixed;pointerEvents=1;shape=mxgraph.aws4.disk;" vertex="1" parent="1">
          <mxGeometry x="610" y="583" width="78" height="78" as="geometry" />
        </mxCell>
      </root>
    </mxGraphModel>
  </diagram>
</mxfile>
